<svg xmlns="http://www.w3.org/2000/svg" width="16" height="16" viewBox="0 0 16 16" fill="none">
<path fill-rule="evenodd" clip-rule="evenodd" d="M12.0508 3.95014C12.3437 4.24303 12.3437 4.71791 12.0508 5.0108L5.0108 12.0508C4.71791 12.3437 4.24303 12.3437 3.95014 12.0508C3.65725 11.7579 3.65725 11.283 3.95014 10.9901L10.9901 3.95014C11.283 3.65725 11.7579 3.65725 12.0508 3.95014Z" fill="#191D21"/>
<path fill-rule="evenodd" clip-rule="evenodd" d="M3.95014 3.95014C4.24303 3.65725 4.71791 3.65725 5.0108 3.95014L12.0508 10.9901C12.3437 11.283 12.3437 11.7579 12.0508 12.0508C11.7579 12.3437 11.283 12.3437 10.9901 12.0508L3.95014 5.0108C3.65725 4.71791 3.65725 4.24303 3.95014 3.95014Z" fill="#191D21"/>
</svg>